
<?xml version="1.0" standalone="no"?>
<svg width="402" height="107" viewBox="0 0 402 107" fill="none" xmlns="http://www.w3.org/2000/svg">
<path d="M28.5293 45.7422L40.543 29.8223C39.0794 29.2038 37.459 28.7422 35.7714 28.4375C34.0837 28.0755 32.3389 27.8945 30.5371 27.8945C27.0397 27.8945 23.8242 28.6549 20.8906 30.1758C17.957 31.6393 15.4779 33.6344 13.4531 36.1609C11.4284 38.6875 9.89453 41.5638 8.85156 44.7891C7.85026 48.0143 7.34961 51.4219 7.34961 55.0117C7.34961 58.6016 7.85026 62.0091 8.85156 65.2344C9.89453 68.4596 11.4284 71.3359 13.4531 73.8633C15.4779 76.3906 17.957 78.3857 20.8906 79.8486C23.8242 81.3115 27.0397 82.043 30.5371 82.043C32.3389 82.043 34.0837 81.8913 35.7714 81.5879C37.459 81.2845 39.0794 80.8229 40.543 80.2031L28.5293 64.2832C28.0384 64.3981 27.5475 64.4839 27.0566 64.541C26.5658 64.541 26.1042 64.541 25.6719 64.541C24.5143 64.541 23.4141 64.3607 22.3711 64C21.3281 63.582 20.3848 63.0339 19.541 62.3555C18.6973 61.6198 18.0397 60.7956 17.5684 59.8828C17.0964 58.9128 16.8604 57.8411 16.8604 56.668C16.8604 55.4375 17.0964 54.3372 17.5684 53.3672C18.0397 52.3971 18.6973 51.5729 19.541 50.8945C20.3848 50.1589 21.3281 49.582 22.3711 49.1641C23.4141 48.7461 24.5143 48.5371 25.6719 48.5371C26.1042 48.5371 26.5658 48.5371 27.0566 48.5371C27.5475 48.5944 28.0384 48.6803 28.5293 48.7949V45.7422Z" fill="url(#paint0_linear_4266_169)"/>
<path d="M84.9219 79.416L89.2773 82.043H91.7461L75.6543 27.8945H65.4102L49.3184 82.043H51.8457L56.2012 79.416L68.543 36.7031L80.627 79.416H84.9219Z" fill="url(#paint1_linear_4266_169)"/>
<path d="M108.826 51.2129L119.498 51.2715L110.781 72.2715L108.826 51.2129ZM120.246 27.8945L137.686 82.043H129.918L125.68 76.8242L102.586 76.7656L98.4062 82.043H90.6973L108.078 27.8945H120.246Z" fill="url(#paint2_linear_4266_169)"/>
<path d="M142.158 82.043H150.688L157.182 54.9375L173.215 82.043H182.051L158.871 43.8633L165.246 27.8945H156.715L150.807 50.5117L137.92 27.8945H129.084L148.826 61.0156L142.158 82.043Z" fill="url(#paint3_linear_4266_169)"/>
<path d="M182.81 82.043H191.34V27.8945H182.81V82.043Z" fill="url(#paint4_linear_4266_169)"/>
<path d="M231.357 82.043V74.8574H208.85V58.7656H229.812V51.5801H208.85V35.0801H230.83V27.8945H200.32V82.043H231.357Z" fill="url(#paint5_linear_4266_169)"/>
<path d="M286.34 47.4004C286.34 44.7591 285.734 42.3177 284.521 40.0762C283.309 37.7773 281.65 35.8398 279.547 34.2637C277.444 32.6875 274.971 31.4857 272.127 30.6582C269.283 29.8307 266.234 29.417 262.98 29.417C260.991 29.417 258.973 29.5638 256.928 29.8574C254.882 30.1511 252.894 30.6615 250.963 31.3887V41.3438C252.951 40.3737 255.026 39.6367 257.186 39.1328C259.345 38.6289 261.445 38.377 263.49 38.377C265.765 38.377 267.716 38.6029 269.342 39.0547C271.025 39.4492 272.384 40.0599 273.418 40.8867C274.509 41.7142 275.294 42.748 275.766 43.9883C276.295 45.2285 276.559 46.6816 276.559 48.3477V48.7656H261.787C258.589 48.7656 255.69 49.1862 253.092 50.0273C250.551 50.8112 248.363 51.9245 246.527 53.3672C244.692 54.8099 243.266 56.5264 242.25 58.5166C241.235 60.5068 240.727 62.6966 240.727 65.0859C240.727 67.5885 241.19 69.8626 242.113 71.9082C243.094 73.8965 244.445 75.582 246.166 76.9648C247.887 78.3477 249.928 79.4023 252.287 80.1289C254.647 80.8555 257.246 81.2188 260.086 81.2188C261.96 81.2188 263.757 81.0436 265.473 80.6934C267.246 80.3431 268.987 79.7962 270.695 79.0527L275.227 81.0156H277.344L284.316 65.2031L279.02 62.3086L276.559 67.7852V52.9492C278.031 52.6556 279.414 52.3359 280.707 51.9902C282.057 51.5872 283.075 51.1556 283.76 50.6953L286.34 47.4004ZM276.559 58.8828V70.8945C275.18 71.6784 273.685 72.2881 272.072 72.7236C270.459 73.1019 268.799 73.291 267.082 73.291C263.656 73.291 260.945 72.4766 258.951 70.8477C257.014 69.2188 256.045 66.9707 256.045 64.1035C256.045 62.6608 256.326 61.3548 256.889 60.1855C257.451 59.0163 258.278 58.0182 259.369 57.1914C260.461 56.3639 261.797 55.7376 263.377 55.3125C265.014 54.8874 266.853 54.6748 268.896 54.6748H276.559V58.8828Z" fill="url(#paint6_linear_4266_169)"/>
<path d="M343.756 47.4004C343.756 44.7591 343.15 42.3177 341.938 40.0762C340.725 37.7773 339.066 35.8398 336.963 34.2637C334.86 32.6875 332.388 31.4857 329.544 30.6582C326.699 29.8307 323.65 29.417 320.396 29.417C318.408 29.417 316.39 29.5638 314.344 29.8574C312.299 30.1511 310.31 30.6615 308.379 31.3887V41.3438C310.367 40.3737 312.442 39.6367 314.602 39.1328C316.761 38.6289 318.861 38.377 320.907 38.377C323.181 38.377 325.132 38.6029 326.758 39.0547C328.441 39.4492 329.801 40.0599 330.834 40.8867C331.926 41.7142 332.71 42.748 333.182 43.9883C333.711 45.2285 333.975 46.6816 333.975 48.3477V48.7656H319.203C316.006 48.7656 313.107 49.1862 310.509 50.0273C307.967 50.8112 305.779 51.9245 303.944 53.3672C302.108 54.8099 300.682 56.5264 299.667 58.5166C298.652 60.5068 298.144 62.6966 298.144 65.0859C298.144 67.5885 298.606 69.8626 299.53 71.9082C300.511 73.8965 301.861 75.582 303.582 76.9648C305.303 78.3477 307.344 79.4023 309.704 80.1289C312.063 80.8555 314.662 81.2188 317.502 81.2188C319.376 81.2188 321.174 81.0436 322.889 80.6934C324.662 80.3431 326.403 79.7962 328.111 79.0527L332.644 81.0156H334.76L341.733 65.2031L336.436 62.3086L333.975 67.7852V52.9492C335.448 52.6556 336.83 52.3359 338.123 51.9902C339.473 51.5872 340.491 51.1556 341.176 50.6953L343.756 47.4004ZM333.975 58.8828V70.8945C332.596 71.6784 331.102 72.2881 329.488 72.7236C327.875 73.1019 326.215 73.291 324.498 73.291C321.072 73.291 318.361 72.4766 316.367 70.8477C314.43 69.2188 313.461 66.9707 313.461 64.1035C313.461 62.6608 313.742 61.3548 314.305 60.1855C314.867 59.0163 315.694 58.0182 316.786 57.1914C317.877 56.3639 319.213 55.7376 320.793 55.3125C322.43 54.8874 324.27 54.6748 326.312 54.6748H333.975V58.8828Z" fill="url(#paint7_linear_4266_169)"/>
<path d="M387.043 54.584C387.043 51.5931 386.526 48.888 385.492 46.4688C384.449 44.0495 382.965 42.0013 381.041 40.3242C379.176 38.5898 376.898 37.2718 374.209 36.3701C371.52 35.4684 368.559 35.0176 365.326 35.0176C362.092 35.0176 359.131 35.4684 356.441 36.3701C353.753 37.2718 351.441 38.5898 349.518 40.3242C347.652 42.0013 346.201 44.0495 345.166 46.4688C344.123 48.888 343.602 51.5931 343.602 54.584V55.3281C343.602 58.319 344.123 61.0241 345.166 63.4434C346.201 65.8626 347.652 67.9108 349.518 69.5879C351.441 71.265 353.753 72.5829 356.441 73.542C359.131 74.444 362.092 74.8945 365.326 74.8945C368.559 74.8945 371.52 74.444 374.209 73.542C376.898 72.5829 379.176 71.265 381.041 69.5879C382.965 67.9108 384.449 65.8626 385.492 63.4434C386.526 61.0241 387.043 58.319 387.043 55.3281V54.584ZM375.969 55.3281V54.584C375.969 53.0651 375.805 51.6315 375.477 50.2832C375.206 48.9349 374.764 47.7754 374.15 46.8047C373.536 45.834 372.75 45.0716 371.791 44.5176C370.889 43.9635 369.816 43.6865 368.572 43.6865C367.271 43.6865 366.17 43.9635 365.268 44.5176C364.365 45.0716 363.613 45.834 363.008 46.8047C362.46 47.7754 362.05 48.9349 361.779 50.2832C361.508 51.6315 361.373 53.0651 361.373 54.584V55.3281C361.373 56.847 361.508 58.2806 361.779 59.6289C362.05 60.9772 362.46 62.1367 363.008 63.1074C363.613 64.0781 364.365 64.8405 365.268 65.3945C366.17 65.9486 367.271 66.2256 368.572 66.2256C369.816 66.2256 370.889 65.9486 371.791 65.3945C372.75 64.8405 373.536 64.0781 374.15 63.1074C374.764 62.1367 375.206 60.9772 375.477 59.6289C375.805 58.2806 375.969 56.847 375.969 55.3281Z" fill="url(#paint8_linear_4266_169)"/>
<defs>
<linearGradient id="paint0_linear_4266_169" x1="23.9463" y1="27.8945" x2="23.9463" y2="82.043" gradientUnits="userSpaceOnUse">
<stop stop-color="#72EFED"/>
<stop offset="1" stop-color="#6F77EC"/>
</linearGradient>
<linearGradient id="paint1_linear_4266_169" x1="70.5322" y1="27.8945" x2="70.5322" y2="82.043" gradientUnits="userSpaceOnUse">
<stop stop-color="#72EFED"/>
<stop offset="1" stop-color="#6F77EC"/>
</linearGradient>
<linearGradient id="paint2_linear_4266_169" x1="114.191" y1="27.8945" x2="114.191" y2="82.043" gradientUnits="userSpaceOnUse">
<stop stop-color="#72EFED"/>
<stop offset="1" stop-color="#6F77EC"/>
</linearGradient>
<linearGradient id="paint3_linear_4266_169" x1="160.068" y1="27.8945" x2="160.068" y2="82.043" gradientUnits="userSpaceOnUse">
<stop stop-color="#72EFED"/>
<stop offset="1" stop-color="#6F77EC"/>
</linearGradient>
<linearGradient id="paint4_linear_4266_169" x1="187.075" y1="27.8945" x2="187.075" y2="82.043" gradientUnits="userSpaceOnUse">
<stop stop-color="#72EFED"/>
<stop offset="1" stop-color="#6F77EC"/>
</linearGradient>
<linearGradient id="paint5_linear_4266_169" x1="215.838" y1="27.8945" x2="215.838" y2="82.043" gradientUnits="userSpaceOnUse">
<stop stop-color="#72EFED"/>
<stop offset="1" stop-color="#6F77EC"/>
</linearGradient>
<linearGradient id="paint6_linear_4266_169" x1="263.533" y1="29.417" x2="263.533" y2="81.2188" gradientUnits="userSpaceOnUse">
<stop stop-color="#72EFED"/>
<stop offset="1" stop-color="#6F77EC"/>
</linearGradient>
<linearGradient id="paint7_linear_4266_169" x1="320.95" y1="29.417" x2="320.95" y2="81.2188" gradientUnits="userSpaceOnUse">
<stop stop-color="#72EFED"/>
<stop offset="1" stop-color="#6F77EC"/>
</linearGradient>
<linearGradient id="paint8_linear_4266_169" x1="365.322" y1="35.0176" x2="365.322" y2="74.8945" gradientUnits="userSpaceOnUse">
<stop stop-color="#72EFED"/>
<stop offset="1" stop-color="#6F77EC"/>
</linearGradient>
</defs>
</svg>
